<svg  xmlns="http://www.w3.org/2000/svg" width="192" height="94.56002842219696" viewBox="0 0 100 49.250014803227586" class="css-1j8o68f"><defs id="SvgjsDefs2158"></defs><g id="SvgjsG2159" featurekey="8L6ael-0" transform="matrix(3.2921122312586273,0,0,3.2921122312586273,-5.321251309449872,-16.46055016768305)" fill="#fa3939"><path d="M13.88 5 q0.28 0 0.49 0.21 t0.21 0.49 l0 13.4 q0 0.28 -0.21 0.49 t-0.49 0.21 l-1.76 0 q-0.36 0 -0.58 -0.28 l-9.78 -13.4 q-0.12 -0.16 -0.14 -0.36 t0.07 -0.38 t0.26 -0.28 t0.37 -0.1 l1.76 0 q0.16 0 0.32 0.07 t0.24 0.21 l7.02 9.54 l0 -9.12 q0 -0.28 0.2 -0.49 t0.5 -0.21 l1.52 0 z M3.84 14.7 q0.28 0 0.49 0.2 t0.21 0.5 l0 3.7 q0 0.28 -0.21 0.49 t-0.49 0.21 l-1.52 0 q-0.28 0 -0.49 -0.21 t-0.21 -0.49 l0 -3.7 q0 -0.3 0.21 -0.5 t0.49 -0.2 l1.52 0 z M31.848 18.82 q0.12 0.16 0.14 0.36 t-0.06 0.38 t-0.26 0.29 t-0.38 0.11 l-1.94 0 q-0.36 0 -0.58 -0.28 l-3.82 -5.06 l-3.82 5.06 q-0.22 0.28 -0.56 0.28 l-1.96 0 q-0.2 0 -0.37 -0.1 t-0.25 -0.28 q-0.2 -0.42 0.06 -0.76 l10.36 -13.54 q0.22 -0.28 0.56 -0.28 l1.94 0 q0.2 0 0.37 0.11 t0.27 0.29 t0.08 0.38 t-0.16 0.36 l-4.7 6.12 z M21.308 9.88 l-2.88 -3.74 q-0.14 -0.16 -0.16 -0.36 t0.08 -0.38 t0.27 -0.29 t0.37 -0.11 l1.94 0 q0.16 0 0.32 0.07 t0.24 0.21 l2.82 3.74 q0.28 0.34 0.08 0.76 q-0.08 0.18 -0.25 0.28 t-0.39 0.1 l-1.88 0 q-0.16 0 -0.32 -0.07 t-0.24 -0.21 z"></path></g></svg>